<svg width="99" height="99" viewBox="0 0 99 99" fill="none" xmlns="http://www.w3.org/2000/svg">
<circle cx="49.5" cy="49.5" r="49.5" fill="#F2F2F2"/>
<rect x="15" y="28" width="69.875" height="43" rx="2.34024" fill="white" stroke="#D9D9D9" stroke-width="0.5"/>
<rect x="18.4021" y="30.8323" width="63.5941" height="7.20958" rx="1.17012" fill="#5F93C3"/>
<rect x="66.8174" y="40.6168" width="13.8703" height="1.02994" rx="0.51497" fill="#5C5B5B"/>
<rect x="70.7433" y="42.6767" width="9.94476" height="1.02994" rx="0.51497" fill="#5C5B5B"/>
<rect x="18.4021" y="41.1317" width="16.2257" height="1.54491" rx="0.772455" fill="#999999"/>
<rect x="18.4021" y="49.8862" width="16.2257" height="1.54491" rx="0.772455" fill="#999999"/>
<rect x="18.4021" y="56.0659" width="16.2257" height="1.54491" rx="0.772455" fill="#999999"/>
<rect x="42.4791" y="56.0659" width="12.3001" height="1.54491" rx="0.772455" fill="#999999"/>
<rect x="18.4021" y="62.2455" width="14.132" height="1.54491" rx="0.772455" fill="#999999"/>
<rect x="18.4021" y="43.7067" width="18.8427" height="1.54491" rx="0.772455" fill="#999999"/>
<rect x="18.4021" y="47.3113" width="18.8427" height="1.54491" rx="0.772455" fill="#999999"/>
<rect x="18.4021" y="53.4911" width="18.8427" height="1.54491" rx="0.772455" fill="#999999"/>
<rect x="42.4791" y="53.4911" width="14.3937" height="1.54491" rx="0.772455" fill="#999999"/>
<rect x="18.4021" y="59.6706" width="8.89794" height="1.54491" rx="0.772455" fill="#999999"/>
<rect x="66.0624" y="48.8281" width="16.125" height="19.4844" rx="2.34024" fill="#D9D9D9"/>
<path d="M50.5115 68.5365C50.6858 68.9481 51.3959 69.025 51.7796 69.0129C53.334 68.9635 54.871 68.2347 56.1925 67.493C56.7017 67.2072 57.4006 66.7778 57.4006 66.1183C57.4006 65.9699 57.4781 65.5686 57.3453 65.4514C57.0579 65.1979 56.3705 65.2531 56.0219 65.279C55.379 65.3268 54.7671 65.5685 54.2742 65.9777C53.5125 66.6101 53.2661 67.8617 54.514 68.0919C55.8928 68.3462 57.1703 67.3417 58.4888 67.1664C59.0282 67.0946 58.7007 68.1503 59.0791 68.4367C59.233 68.5532 59.9156 68.1511 60.0474 68.0919C60.4144 67.927 60.7902 67.8292 61.1818 67.738C61.4536 67.6747 61.7702 67.7199 62.0487 67.7199" stroke="#999999" stroke-width="0.702072" stroke-linecap="round"/>
<circle cx="73.7891" cy="58.5703" r="3.02344" fill="#999999"/>
<path d="M74.1251 62.2656C70.7855 62.2656 68.0782 64.9729 68.0782 68.3125H80.172C80.172 64.9729 77.4647 62.2656 74.1251 62.2656Z" fill="#999999"/>
</svg>
