<svg width="119" height="48" viewBox="0 0 119 48" fill="none" xmlns="http://www.w3.org/2000/svg">
<g clip-path="url(#clip0_460_9224)">
<path d="M89.7762 19.5902L84.5411 26.942L96.6359 44.6333V19.5902H89.7762ZM53.5922 21.0798V43.7361L65.0075 26.7809L59.6548 19.7688C64.0329 18.6211 68.1376 16.6102 71.7278 13.8543L75.1772 18.2227L81.7233 8.33609H118.913V19.5598H110.547V46.9504L81.7189 46.9591L74.341 35.9358L66.6713 46.9591H39.555V39.4244C37.6038 44.7553 31.4541 48 19.2505 48C1.15416 48 0.274385 41.602 0 34.2764H14.3116C14.3595 36.4628 14.7253 38.0481 15.6051 39.089C16.5284 40.1299 17.7741 40.6744 19.6207 40.6744C22.5301 40.6744 25.6703 39.8556 25.6703 36.6849C25.6749 36.0339 25.4635 35.3998 25.0692 34.8818C23.1747 32.3644 7.24725 30.509 2.76998 25.8619C0.971236 24.0022 0.413755 21.2148 0.413755 18.9718C0.413755 10.3352 7.10789 6.45023 20.4526 6.45023C34.6248 6.45023 37.9828 11.4109 38.1657 19.5598H24.3854C24.294 17.3734 23.6363 15.6661 22.6782 14.8734C22.2551 14.4882 21.7583 14.1927 21.2178 14.0048C20.6774 13.8169 20.1044 13.7405 19.5336 13.7802C16.5807 13.8369 15.0084 15.0912 15.0084 17.1164C14.9895 17.7696 15.2024 18.4084 15.6095 18.9195C17.7784 21.3803 33.2006 23.1311 37.63 27.8305C38.4736 28.7101 39.13 29.7517 39.5594 30.8923V21.794C44.2491 22.0052 48.9482 21.766 53.5922 21.0798Z" fill="black"/>
<path d="M39.5986 8.31866C53.9102 9.37265 61.9719 5.3222 64.7375 0H79.354C74.9595 12.7088 61.2533 20.6704 39.603 19.5815V8.31866H39.5986Z" fill="#EF7C00"/>
</g>
<defs>
<clipPath id="clip0_460_9224">
<rect width="118.913" height="48" fill="white"/>
</clipPath>
</defs>
</svg>
